<?xml version="1.0" standalone="no"?>
<!DOCTYPE svg PUBLIC "-//W3C//DTD SVG 20010904//EN"
 "http://www.w3.org/TR/2001/REC-SVG-20010904/DTD/svg10.dtd">
<svg version="1.0" xmlns="http://www.w3.org/2000/svg"
 width="260.000000pt" height="260.000000pt" viewBox="0 0 260.000000 260.000000"
 preserveAspectRatio="xMidYMid meet">
<metadata>
Created by potrace 1.14, written by Peter Selinger 2001-2017
</metadata>
<g transform="translate(0.000000,260.000000) scale(0.100000,-0.100000)"
fill="#000000" stroke="none">
<path d="M0 1230 l0 -890 188 0 189 0 -1 368 c-1 202 0 373 2 380 3 9 76 12
322 12 l317 0 1 -367 c0 -203 1 -374 1 -380 1 -10 52 -13 219 -13 l217 0 0
550 c0 303 2 550 5 550 3 0 21 -22 40 -47 19 -26 40 -51 45 -57 6 -6 26 -31
45 -56 19 -25 43 -54 52 -65 9 -11 55 -68 101 -127 l85 -108 59 68 c67 79 107
127 231 275 49 60 94 107 98 105 5 -1 8 -246 9 -543 l0 -540 188 -3 187 -2 0
890 0 890 -164 0 -164 0 -191 -262 c-106 -145 -197 -270 -204 -278 -7 -8 -20
-26 -29 -39 l-16 -23 -31 43 c-17 24 -35 49 -41 56 -5 7 -10 16 -10 22 0 5 -4
11 -8 13 -5 2 -31 37 -58 78 -27 41 -52 77 -55 80 -3 3 -52 74 -109 158 l-104
152 -200 0 -201 0 1 -354 1 -353 -318 0 c-217 1 -319 4 -320 11 -1 6 -2 164
-3 351 l-1 340 -187 3 -188 2 0 -890z"/>
</g>
</svg>
